<svg width="21" height="23" viewBox="0 0 21 23" fill="none" xmlns="http://www.w3.org/2000/svg">
<path d="M4.15002 10.45C4.15002 7.48014 4.15002 5.99522 5.07264 5.07261C5.99525 4.14999 7.48017 4.14999 10.45 4.14999H13.6C16.5698 4.14999 18.0548 4.14999 18.9774 5.07261C19.9 5.99522 19.9 7.48014 19.9 10.45V15.7C19.9 18.6698 19.9 20.1547 18.9774 21.0774C18.0548 22 16.5698 22 13.6 22H10.45C7.48017 22 5.99525 22 5.07264 21.0774C4.15002 20.1547 4.15002 18.6698 4.15002 15.7V10.45Z" stroke="white" stroke-width="2"/>
<path opacity="0.5" d="M4.15 18.85C2.41031 18.85 1 17.4397 1 15.7V9.4C1 5.4402 1 3.46031 2.23015 2.23015C3.46031 1 5.4402 1 9.4 1H13.6C15.3397 1 16.75 2.41031 16.75 4.15" stroke="white" stroke-width="2"/>
</svg>
