<svg width="120" height="120" viewBox="0 0 120 120" fill="none" xmlns="http://www.w3.org/2000/svg">
<path id="Vector" d="M84.5299 35.9163C84.5538 35.9163 84.5857 35.9163 84.6175 35.9163C85.4502 35.9163 86.2231 36.1753 86.8566 36.6215L86.8446 36.6135C87.3068 37.0159 87.6175 37.5817 87.6932 38.2191V38.2311C87.7729 38.7171 87.8167 39.2749 87.8167 39.8446C87.8167 40.1036 87.8088 40.3586 87.7888 40.6135V40.5777C86.8924 50.0159 83.004 72.9044 81.0279 83.4701C80.1912 87.9442 78.5458 89.4422 76.9522 89.5857C73.49 89.9084 70.8606 87.2988 67.506 85.0996C62.255 81.6534 59.2869 79.51 54.1912 76.1514C48.2988 72.2749 52.1195 70.1355 55.4741 66.6534C56.3546 65.737 71.6175 51.8526 71.9163 50.5936C71.9323 50.5179 71.9402 50.4343 71.9402 50.3466C71.9402 50.0359 71.8247 49.753 71.6375 49.5378C71.4303 49.4024 71.1713 49.3267 70.9004 49.3267C70.7211 49.3267 70.5498 49.3626 70.3904 49.4223L70.3984 49.4183C69.8725 49.5378 61.4847 55.081 45.2351 66.0478C43.4622 67.4462 41.2231 68.3307 38.7849 68.4343H38.761C35.3068 68.0159 32.1713 67.247 29.1952 66.1514L29.49 66.247C25.753 65.0279 22.7849 64.3865 23.0398 62.3227C23.1753 61.2497 24.6547 60.1514 27.4781 59.0279C44.8699 51.4502 56.4675 46.4555 62.2709 44.0438C68.6733 40.6454 76.0956 37.8486 83.9004 36.0359L84.5259 35.9123L84.5299 35.9163ZM59.8606 0C26.7849 0.0796813 0 26.9123 0 60C0 93.1355 26.8606 120 60 120C93.1394 120 120 93.1394 120 60C120 26.9123 93.2151 0.0796813 60.1474 0H60.1394C60.0465 0 59.9535 0 59.8606 0Z" fill="url(#paint0_linear_162_480)"/>
<defs>
<linearGradient id="paint0_linear_162_480" x1="60" y1="0" x2="60" y2="120" gradientUnits="userSpaceOnUse">
<stop stop-color="white"/>
<stop offset="1" stop-color="#EC5C5B"/>
</linearGradient>
</defs>
</svg>
